<mxfile host="drawio-plugin" modified="2022-10-12T10:41:33.825Z" agent="5.0 (X11; Linux x86_64) AppleWebKit/537.36 (KHTML, like Gecko) Chrome/98.0.4758.102 Safari/537.36" etag="HY2jGy29gy1_YkKRJSwO" version="15.5.4" type="embed" pages="3"><diagram id="23iRSUPoRavnBvh4doch" name="Page-1"><mxGraphModel dx="898" dy="391" grid="1" gridSize="10" guides="1" tooltips="1" connect="1" arrows="1" fold="1" page="1" pageScale="1" pageWidth="1920" pageHeight="1200" math="0" shadow="0"><root><mxCell id="0"/><mxCell id="1" parent="0"/><mxCell id="2" value="权限管理" style="ellipse;whiteSpace=wrap;html=1;" parent="1" vertex="1"><mxGeometry x="100" y="110" width="140" height="70" as="geometry"/></mxCell><mxCell id="3" value="工单处理" style="ellipse;whiteSpace=wrap;html=1;" parent="1" vertex="1"><mxGeometry x="360" y="110" width="140" height="70" as="geometry"/></mxCell><mxCell id="4" value="流程审批" style="ellipse;whiteSpace=wrap;html=1;" parent="1" vertex="1"><mxGeometry x="640" y="110" width="140" height="70" as="geometry"/></mxCell></root></mxGraphModel></diagram><diagram id="ItNK8QXXodYPItlWuvNm" name="Page-2"><mxGraphModel dx="898" dy="391" grid="1" gridSize="10" guides="1" tooltips="1" connect="1" arrows="1" fold="1" page="1" pageScale="1" pageWidth="1920" pageHeight="1200" math="0" shadow="0"><root><mxCell id="ki5skBC5D_vufz5gFneB-0"/><mxCell id="ki5skBC5D_vufz5gFneB-1" parent="ki5skBC5D_vufz5gFneB-0"/><mxCell id="ki5skBC5D_vufz5gFneB-2" value="" style="edgeStyle=orthogonalEdgeStyle;rounded=0;orthogonalLoop=1;jettySize=auto;html=1;" parent="ki5skBC5D_vufz5gFneB-1" source="ki5skBC5D_vufz5gFneB-3" target="ki5skBC5D_vufz5gFneB-5" edge="1"><mxGeometry relative="1" as="geometry"/></mxCell><mxCell id="ki5skBC5D_vufz5gFneB-3" value="用户" style="ellipse;whiteSpace=wrap;html=1;" parent="ki5skBC5D_vufz5gFneB-1" vertex="1"><mxGeometry x="200" y="80" width="120" height="80" as="geometry"/></mxCell><mxCell id="ki5skBC5D_vufz5gFneB-4" value="" style="edgeStyle=orthogonalEdgeStyle;rounded=0;orthogonalLoop=1;jettySize=auto;html=1;" parent="ki5skBC5D_vufz5gFneB-1" source="ki5skBC5D_vufz5gFneB-5" target="ki5skBC5D_vufz5gFneB-6" edge="1"><mxGeometry relative="1" as="geometry"/></mxCell><mxCell id="ki5skBC5D_vufz5gFneB-5" value="角色" style="ellipse;whiteSpace=wrap;html=1;" parent="ki5skBC5D_vufz5gFneB-1" vertex="1"><mxGeometry x="400" y="80" width="120" height="80" as="geometry"/></mxCell><mxCell id="ki5skBC5D_vufz5gFneB-6" value="权限" style="ellipse;whiteSpace=wrap;html=1;" parent="ki5skBC5D_vufz5gFneB-1" vertex="1"><mxGeometry x="600" y="80" width="120" height="80" as="geometry"/></mxCell></root></mxGraphModel></diagram><diagram id="KiXJJHqsnnmUHRWJqtzU" name="Page-3"><mxGraphModel dx="898" dy="391" grid="1" gridSize="10" guides="1" tooltips="1" connect="1" arrows="1" fold="1" page="1" pageScale="1" pageWidth="1920" pageHeight="1200" math="0" shadow="0"><root><mxCell id="E-g5Q_Eqwb5OjO8sYGw5-0"/><mxCell id="E-g5Q_Eqwb5OjO8sYGw5-1" parent="E-g5Q_Eqwb5OjO8sYGw5-0"/><mxCell id="E-g5Q_Eqwb5OjO8sYGw5-2" value="" style="edgeStyle=orthogonalEdgeStyle;rounded=0;orthogonalLoop=1;jettySize=auto;html=1;" parent="E-g5Q_Eqwb5OjO8sYGw5-1" source="E-g5Q_Eqwb5OjO8sYGw5-3" target="E-g5Q_Eqwb5OjO8sYGw5-5" edge="1"><mxGeometry relative="1" as="geometry"/></mxCell><mxCell id="E-g5Q_Eqwb5OjO8sYGw5-3" value="用户" style="ellipse;whiteSpace=wrap;html=1;" parent="E-g5Q_Eqwb5OjO8sYGw5-1" vertex="1"><mxGeometry x="80" y="80" width="120" height="80" as="geometry"/></mxCell><mxCell id="E-g5Q_Eqwb5OjO8sYGw5-4" value="" style="edgeStyle=orthogonalEdgeStyle;rounded=0;orthogonalLoop=1;jettySize=auto;html=1;" parent="E-g5Q_Eqwb5OjO8sYGw5-1" source="E-g5Q_Eqwb5OjO8sYGw5-5" target="E-g5Q_Eqwb5OjO8sYGw5-6" edge="1"><mxGeometry relative="1" as="geometry"/></mxCell><mxCell id="E-g5Q_Eqwb5OjO8sYGw5-5" value="角色" style="ellipse;whiteSpace=wrap;html=1;" parent="E-g5Q_Eqwb5OjO8sYGw5-1" vertex="1"><mxGeometry x="280" y="80" width="120" height="80" as="geometry"/></mxCell><mxCell id="E-g5Q_Eqwb5OjO8sYGw5-6" value="" style="ellipse;whiteSpace=wrap;html=1;" parent="E-g5Q_Eqwb5OjO8sYGw5-1" vertex="1"><mxGeometry x="480" y="65" width="210" height="110" as="geometry"/></mxCell><mxCell id="E-g5Q_Eqwb5OjO8sYGw5-7" value="操作" style="ellipse;whiteSpace=wrap;html=1;" parent="E-g5Q_Eqwb5OjO8sYGw5-1" vertex="1"><mxGeometry x="490" y="95" width="80" height="50" as="geometry"/></mxCell><mxCell id="E-g5Q_Eqwb5OjO8sYGw5-8" value="对象" style="ellipse;whiteSpace=wrap;html=1;" parent="E-g5Q_Eqwb5OjO8sYGw5-1" vertex="1"><mxGeometry x="600" y="95" width="80" height="50" as="geometry"/></mxCell><mxCell id="E-g5Q_Eqwb5OjO8sYGw5-9" value="权限" style="text;html=1;align=center;verticalAlign=middle;resizable=0;points=[];autosize=1;" parent="E-g5Q_Eqwb5OjO8sYGw5-1" vertex="1"><mxGeometry x="565" y="75" width="40" height="20" as="geometry"/></mxCell></root></mxGraphModel></diagram></mxfile>